<?xml version="1.0" encoding="UTF-8" standalone="no" ?>
<svg width="260" height="260" viewBox="0 0 260 260" xmlns="http://www.w3.org/2000/svg">
	<g transform="translate(-20, 0)">
		<path d="m273.336 124.488l-57.867-100.672c-2.102-3.64-5.985-6.325-10.188-6.325h-115.736c-4.204 0-8.088 2.685-10.19 6.325l-57.867 100.45c-2.102 3.641-2.102 8.236 0 11.877l57.867 99.847c2.102 3.64 5.986 5.501 10.19 5.501h115.735c4.203 0 8.087-1.805 10.188-5.446l57.867-100.01c2.104-3.639 2.104-7.907.001-11.547m-47.917 48.41c0 1.48-.891 2.849-2.174 3.59l-73.71 42.527c-1.282.74-2.888.74-4.17 0l-73.767-42.527c-1.282-.741-2.179-2.109-2.179-3.59v-85.055c0-1.481.884-2.849 2.167-3.59l73.707-42.527c1.282-.741 2.886-.741 4.168 0l73.772 42.527c1.283.741 2.186 2.109 2.186 3.59z" fill="#edb253" />
	</g>
	<g transform="translate(50,60) scale(0.8)">
		<path d="m170.90501,49.5701c0.15667,-7.8093 -1.55903,-15.70518 -2.95197,-23.48003c-0.47943,-2.67633 -1.45096,-5.26255 -2.40805,-7.80017c-0.72091,-1.91036 -2.84949,-3.1269 -4.81021,-2.70872c-1.26896,0.27034 -2.40982,0.53362 -3.51622,0.89761c-11.58143,3.81012 -22.30501,9.38247 -32.60688,15.85655c-1.38411,0.86875 -3.39724,1.18238 -5.06818,1.05987c-3.99742,-0.29213 -7.95154,-1.28692 -11.94719,-1.47628c-9.88899,-0.46853 -19.75826,-0.16757 -29.55743,1.54637c-1.36231,0.23795 -3.15576,0.00353 -4.28749,-0.72798c-11.23364,-7.26891 -22.92138,-13.49032 -36.06892,-16.98327c-1.97368,-0.52449 -4.00478,-0.24678 -4.50394,0.53715c-0.3048,0.47943 -0.58044,0.97683 -0.73181,1.51015c-1.42033,4.99044 -3.10364,9.95584 -3.92909,15.05259c-0.98389,6.0827 -1.93009,12.34946 -1.46332,18.42481c0.2939,3.81895 -0.76067,6.16575 -2.84743,8.84561c-7.00034,8.99345 -10.15256,19.33125 -10.34546,30.6659c-0.1658,9.69434 1.1173,19.14189 4.06957,28.40951c4.5219,14.20004 13.25384,24.85677 26.40167,31.79026c10.81016,5.70045 22.58979,7.89765 34.64358,8.32113c10.86435,0.38048 21.7499,0.05772 32.62661,0.11897c10.90234,0.06125 21.65448,-0.91027 32.08416,-4.30928c10.43881,-3.40107 19.47201,-8.8889 26.48118,-17.51807c10.12341,-12.46461 13.27534,-27.14791 13.92234,-42.69083c0.49592,-11.88594 -1.92656,-23.06716 -8.88714,-32.79065c-2.8224,-3.945 -4.4047,-7.33341 -4.29838,-12.55119zm-20.98923,91.07476c-4.67533,4.04277 -10.39198,5.95666 -16.2441,7.3552c-11.48219,2.74318 -23.17347,3.4264 -34.90273,2.91428c-11.5941,0.5027 -23.05479,-0.21998 -34.33525,-2.87482c-8.32113,-1.95718 -15.91781,-5.24812 -21.21275,-12.39069c-8.42567,-11.36704 -10.57928,-32.99973 3.34335,-44.80616c3.55038,-3.00999 7.5101,-4.92035 12.18897,-5.21749c5.1636,-0.32983 10.32896,-0.97329 15.48873,-0.91204c13.01619,0.1549 26.02649,0.80219 39.04091,0.89937c5.944,0.043 11.92952,-1.34288 17.82993,-0.98595c5.36179,0.32453 10.99952,1.31196 15.86568,3.46939c8.11204,3.5972 12.47875,10.89115 13.79806,19.43402c1.96425,12.70226 -0.62756,24.26396 -10.86081,33.11488z" fill="#edb253" />
		<ellipse cx="128.70627" cy="115.88144" fill="#edb253" rx="12.40512" ry="16.57923" />
		<ellipse cx="69.51425" cy="115.88144" fill="#edb253" rx="12.40689" ry="16.57923" />
	</g>
</svg>
